<svg xmlns="http://www.w3.org/2000/svg" width="611.988" height="321.103" viewBox="0.242 235.858 611.988 321.103" xml:space="preserve"><path fill="#8FE3C7" d="M.679 548.453c.736-1.615 2.202-2.561 3.443-3.699 1.844-1.693 3.754-3.314 5.627-4.979 2.931-2.604 5.824-5.248 8.786-7.814 3.969-3.439 7.97-6.844 11.991-10.223 4.052-3.404 8.164-6.738 12.213-10.146 2.256-1.898 4.425-3.9 6.66-5.828 1.709-1.473 3.281-3.123 5.41-4.057 1.169-.514 2.36-.846 3.626-.865 1.984-.029 3.968-.053 5.952-.018 3.922.068 7.844.178 11.766.273 2.992.074 5.983.16 8.976.227.436.008.874-.08 1.441-.125.198 2.412 1.067 4.645 1.708 6.93.276.982 1.079 1.422 1.959 1.619 1.044.234 2.103.16 3.007-.535 1.701-1.311 3.293-2.736 4.58-4.469.718-.965 1.385-1.971 2.187-2.959 2.644.086 5.176.174 7.708.264.121.004.241.016.361.023 3.123.225 6.246.449 9.37.672.2.016.433.074.597-.002.264-.123.482-.342.751-.422.182.293.303.617.486.654.647.143 1.316.186 2.05.311.399.682.702 1.33 1.055 1.951.767 1.35 1.577 2.676 2.328 4.033.162.293.147.684.182 1.104-1.474 1.57-1.637 3.139-.337 4.658.499.582 1.251 1.082 1.983 1.299 1.302.385 2.675.713 4.022.729 3.227.039 6.458-.068 9.684-.211 1.93-.086 3.853-.332 5.776-.533 1.921-.203 3.838-.455 5.759-.658 1.883-.201 3.771-.354 5.653-.553 2.721-.291 5.443-.58 8.158-.926 1.956-.25 3.929-.463 5.841-.918 2.548-.604 5.032-1.469 7.565-2.145 3.142-.84 5.766-2.506 7.918-4.896 1.618-1.795 2.837-3.82 2.944-6.35.014-.346.215-.682.33-1.023l.201.977c.312.025.587.066.862.066 3.359-.012 6.718-.004 10.077-.055 2.626-.039 5.251-.133 7.876-.238 3.43-.135 6.859-.303 10.288-.459 3.709-.17 7.419-.309 11.125-.518 3.344-.189 6.684-.457 10.026-.682a8.886 8.886 0 0 1 1.811.059c-.357 1.646-.815 3.191-1.301 4.73-.364 1.152-.818 2.277-1.132 3.443-.532 1.975.041 3.334 1.851 4.232a18.834 18.834 0 0 0 3.497 1.33c1.161.311 2.385.375 3.578.57 3.221.531 6.427 1.162 9.662 1.59 3.916.514 7.853.863 11.782 1.27 1.164.121 2.337.15 3.499.285 2.441.283 4.878.604 7.316.92 1.718.221 3.435.449 5.151.682 1.917.26 3.832.535 5.75.785 1.479.191 2.962.352 4.443.527 1.88.225 3.76.451 5.64.68 1.68.203 3.388.279 5.035.639 3.586.779 7.16 1.633 10.7 2.596 2.416.656 4.769 1.533 7.014 2.689 3.813 1.965 7.474 4.191 11.092 6.49 1.606 1.021 3.219 2.021 5.021 2.674 1.482.537 2.997.711 4.517.256 1.313-.395 1.823-1.646 1.275-2.908-.417-.965-1.171-1.629-1.991-2.236-2.035-1.508-4.344-2.479-6.68-3.396-.399-.156-.782-.355-1.175-.537.253-.16.456-.188.641-.139 2.113.564 4.188 1.244 6.109 2.311 3.516 1.947 7.249 2.92 11.274 2.475.779-.086 1.559-.402 2.278-.74.666-.313 1.021-.957.938-1.703-.063-.545-.2-1.125-.471-1.596a8.672 8.672 0 0 0-3.529-3.406c-1.907-1.006-3.923-1.715-6.005-2.242-1.518-.387-3.043-.734-4.801-1.154.503-.16.77-.232 1.027-.33 1.321-.492 2.691-.883 3.734-1.93 1.441-1.447 1.296-3.012-.439-4.145-1.328-.867-2.842-1.08-4.386-1.201-3.752-.293-7.383.682-11.072 1.039-3.407.33-6.801.863-10.214 1.105a49.09 49.09 0 0 1-11.125-.494c-4.258-.674-8.493-1.51-12.717-2.379-4.385-.902-8.761-1.859-13.109-2.924-3.371-.824-6.704-1.814-10.033-2.801-3.648-1.08-7.38-1.727-11.131-2.283-2.794-.416-5.595-.76-8.43-.764-1.208-.002-2.416-.141-3.623-.23-.096-.006-.185-.117-.401-.264.672-1.375 1.338-2.738 2.111-4.111 2.558-.158 5.007-.324 7.459-.449 2.132-.111 4.269-.146 6.4-.27 2.41-.141 4.815-.346 7.224-.512.355-.023.635-.1.803-.449.613.182 1.146.443 1.676.439 1.729-.016 3.458-.129 5.305-.213 3.147-.076 6.178-.131 9.207-.213 2.423-.066 4.845-.244 7.267-.236 5.457.02 10.914.123 16.491.193 2.164.096 4.211.139 6.248.311.696.059 1.322.117 1.915-.291 4.039.172 8.079.33 12.117.523 2.866.137 5.732.273 8.592.5 3.137.246 6.266.605 9.399.887 1.367.123 2.741.186 4.111.256 3.514.186 7.024.355 10.537.535 3.188.164 6.378.316 9.565.498 3.991.229 7.979.498 11.972.713 3.511.191 7.024.348 10.537.494 2.384.102 4.771.139 7.153.246 3.593.16 7.185.354 10.872.674-.003 1.193-.175 2.326.513 3.193.896 1.129 1.839 2.322 3.017 3.104 1.916 1.273 4.091 2.137 6.332 2.711 2.423.621 4.858 1.201 7.315 1.652 2.019.369 4.074.551 6.118.771 1.965.211 3.938.344 5.903.549 1.885.195 3.766.426 5.645.666 2.198.277 4.401.543 6.59.889 2.509.398 5.007.861 7.504 1.33 2.694.508 5.387 1.025 8.069 1.59 2.966.623 5.958 1.096 8.977 1.258 1.896.102 3.705.4 5.349 1.314 2.431 1.352 5.093 1.756 7.772 2.146 1.557.227 3.122.396 4.661.707 2.073.418 4.152.621 6.264.52 1.734-.086 3.47-.182 5.204-.252 1.416-.061 2.254.561 2.854 1.924 1.246 2.838 3.396 4.844 6.971 4.609 2.52-.164 4.966-.697 7.207-1.912 1.79-.969 3.298-2.213 3.817-4.322 1.803.447 3.537.746 5.226 1.334 1.967.684 4.052.543 6.187.266 1.338 1.02 2.636 1.803 4.366 1.52 1.125-.184 2.119-.572 2.843-1.428 1.741-2.061 2.921-4.436 3.558-7.051.639-2.631-.828-4.717-3.351-4.988.07-.271.133-.463.193-.654 4.751 1.84 9.51 3.66 14.251 5.523 4.178 1.643 8.354 3.289 12.499 5.012a444.027 444.027 0 0 1 12.367 5.332c4.756 2.146 9.473 4.383 14.184 6.629 1.496.713 2.968 1.527 4.069 2.813.462.539.776 1.205 1.224 1.863.067.787.067 1.523.004 2.424-.506 1.533-1.735 1.984-2.881 2.441-2.376.951-4.89 1.408-7.41 1.74-2.038.271-4.099.383-6.149.533-3.222.238-6.443.604-9.667.639-4.893.051-9.785-.135-14.678-.223-.201-.004-.401-.057-.604-.061-1.614-.037-3.236-.188-4.843-.074-3.015.211-6.019.596-9.029.869-2.974.27-5.95.52-8.929.723-3.021.205-6.047.342-9.071.502-3.387.184-6.773.352-10.162.539-1.088.061-2.173.158-3.26.242-2.896.225-5.79.479-8.688.672-2.9.193-5.806.334-8.707.488-3.187.168-6.372.326-9.559.488-3.146.158-6.291.322-9.438.475-3.591.172-7.183.334-10.773.494-2.018.09-4.037.152-6.055.244-3.592.156-7.183.334-10.772.488-2.544.109-5.089.193-7.633.289-.121.006-.243.004-.364.012-3.301.225-6.602.465-9.902.668-2.982.184-5.967.328-8.951.486-3.064.164-6.129.332-9.194.484-3.429.17-6.856.326-10.287.486-3.47.16-6.938.33-10.408.48-2.141.094-4.279.178-6.42.242-3.477.104-6.952.186-10.543.27-8.714-.002-17.313.004-26.023.008-2.862-.07-5.611-.168-8.36-.205-7.164-.098-14.329-.211-21.493-.238-12.313-.049-24.627-.018-36.939-.061-6.921-.023-13.842-.146-20.764-.188-5.501-.031-10.998-.146-16.49-.49-3.306-.207-6.617-.336-9.926-.484-3.835-.174-7.671-.361-11.508-.484-3.801-.121-7.604-.172-11.406-.246-4.612-.09-9.223-.209-13.835-.248-13.482-.115-26.965-.197-40.447-.297a10.373 10.373 0 0 1-1.205-.098c-.875-.111-1.745-.311-2.622-.35-2.464-.105-4.931-.156-7.397-.217-3.681-.09-7.362-.164-11.043-.254-2.79-.07-5.58-.166-8.37-.232-3.843-.092-7.686-.217-11.529-.238-16.764-.102-33.527-.156-50.291-.258-7.934-.049-15.868-.156-23.801-.242-6.921-.074-13.842-.188-20.763-.221-2.829-.014-5.66.109-8.488.229-2.379.1-4.754.34-7.133.412-2.631.078-5.266.07-7.898.037-1.979-.025-3.963-.078-5.932-.26-1.412-.129-2.84-.416-3.486-1.988-.042-.104-.268-.131-.407-.193 0-.105 0-.215.062-.453.159-.419.263-.712.367-1.003z"/><path fill="#FDFFFF" d="M.243 550.025c.14-.053.365-.023.407.078.646 1.574 2.075 1.861 3.486 1.99 1.969.18 3.953.232 5.932.258 2.632.035 5.267.041 7.898-.037 2.379-.072 4.754-.313 7.133-.412 2.828-.117 5.659-.24 8.488-.229 6.921.033 13.842.146 20.763.221 7.934.086 15.867.195 23.801.242 16.764.102 33.527.156 50.291.258 3.843.023 7.687.148 11.529.24 2.79.066 5.58.162 8.37.23 3.681.092 7.362.164 11.043.254 2.466.061 4.933.111 7.397.219.877.037 1.747.236 2.622.348.399.053.803.094 1.205.098 13.482.1 26.965.182 40.447.297 4.612.041 9.224.16 13.835.25 3.802.074 7.605.123 11.406.244 3.837.123 7.672.313 11.508.484 3.309.148 6.62.279 9.926.484 5.492.344 10.989.461 16.49.492 6.921.039 13.842.162 20.764.186 12.313.043 24.627.012 36.94.061 7.164.027 14.329.143 21.493.238 2.749.037 5.498.137 8.365.266a.209.209 0 0 1 .118.176H.242l.001-6.936z"/><path fill="#B2F4D1" d="M362.016 556.96c-.113 0-.113-.117-.118-.176 8.594-.064 17.191-.068 25.905-.066.114.006.105.123.105.184-8.593.058-17.185.058-25.892.058z"/><path fill="#FDFFFF" d="M.606 548.453c-.032.291-.135.584-.301.924-.062-.211-.062-.469-.062-.826.097-.098.194-.098.363-.098z"/><path fill="#37CE9B" d="M323.649 495.599c-.619.521-1.245.461-1.941.402-2.037-.17-4.084-.215-6.226-.41.26-2.34.658-4.568.966-6.811.477-3.486.77-7.002 1.359-10.465a242.153 242.153 0 0 1 2.596-12.963c1.249-5.504 3.299-10.74 5.669-15.855.315-.684.84-1.373.255-2.145-.568-.75-1.396-.541-2.137-.422-4.95.801-9.907 1.561-14.84 2.461-5.311.971-10.677 1.363-16.05 1.539-3.996.133-8.012-.018-12.005-.27-3.138-.197-6.255-.73-9.377-1.146-.67-.088-1.198.072-1.628.572-.402.467-.312.971-.078 1.477.085.184.173.365.264.547 1.534 3.082 2.915 6.227 4.037 9.484.816 2.371 1.658 4.736 2.576 7.07 2.087 5.305 3.435 10.766 3.936 16.457.319 3.623.892 7.223 1.352 10.832-1.729.076-3.458.189-5.187.205-.53.004-1.063-.26-1.728-.516-.286-.574-.487-1.023-.579-1.492-.388-1.986-.714-3.982-1.115-5.965-.929-4.6-1.829-9.207-2.859-13.783-.577-2.564-1.385-5.074-2.104-7.605-.112-.393-.305-.762-.539-1.336-.2.43-.29.607-.368.791-1.608 3.803-3.129 7.646-4.847 11.396-1.785 3.9-3.76 7.717-5.651 11.568-.945 1.928-1.897 3.852-2.827 5.783-.379.789-.705 1.605-1.055 2.408l-2.004 4.1c.216.146.305.258.401.266 1.207.09 2.415.229 3.623.23 2.835.004 5.636.346 8.43.762 3.751.559 7.483 1.203 11.131 2.283 3.329.986 6.662 1.979 10.033 2.801 4.348 1.064 8.725 2.021 13.109 2.924 4.224.869 8.459 1.707 12.717 2.381 3.677.58 7.411.756 11.125.494 3.413-.242 6.806-.775 10.214-1.107 3.689-.357 7.32-1.33 11.072-1.037 1.544.121 3.058.332 4.386 1.199 1.735 1.135 1.882 2.697.439 4.145-1.043 1.047-2.413 1.438-3.734 1.932-.259.096-.525.168-1.028.328 1.759.422 3.284.77 4.802 1.154 2.082.527 4.098 1.238 6.005 2.242a8.656 8.656 0 0 1 3.528 3.408c.271.469.409 1.049.472 1.596.085.744-.271 1.391-.938 1.703-.721.336-1.499.654-2.279.74-4.024.443-7.76-.527-11.273-2.477-1.922-1.064-3.996-1.746-6.11-2.309-.184-.049-.387-.023-.64.137.392.182.773.381 1.175.537 2.336.92 4.645 1.889 6.679 3.398.821.607 1.575 1.271 1.992 2.234.547 1.264.038 2.516-1.275 2.908-1.52.457-3.033.281-4.517-.256-1.802-.652-3.414-1.652-5.021-2.674-3.618-2.297-7.277-4.523-11.093-6.49-2.244-1.156-4.597-2.031-7.013-2.689a216.466 216.466 0 0 0-10.701-2.596c-1.646-.357-3.354-.436-5.035-.639-1.879-.229-3.759-.453-5.64-.678-1.481-.178-2.964-.338-4.443-.529-1.918-.248-3.833-.525-5.75-.783a825.386 825.386 0 0 0-5.151-.684c-2.438-.314-4.875-.637-7.316-.92-1.161-.135-2.334-.164-3.499-.283-3.929-.406-7.866-.758-11.782-1.271-3.234-.426-6.441-1.059-9.662-1.588-1.192-.197-2.417-.262-3.578-.572a18.694 18.694 0 0 1-3.497-1.33c-1.81-.896-2.383-2.26-1.851-4.232.314-1.164.768-2.291 1.132-3.443.485-1.539.943-3.086 1.412-4.725.563-1.824 1.184-3.535 1.682-5.283a184.327 184.327 0 0 1 5.338-15.881c2.803-7.264 4.984-14.719 7.048-22.215a415.81 415.81 0 0 1 2.53-8.748c.248-.828.216-1.563-.191-2.334a211.207 211.207 0 0 1-2.58-5.092c-1.021-2.068-2.123-4.105-3.002-6.234-1.887-4.568-3.109-9.309-2.735-14.305.491-6.557 3.495-11.789 8.717-15.729.916-.689 1.419-1.395 1.555-2.545.523-4.448 2.489-8.266 5.421-11.59 1.173-1.332 2.458-2.57 3.754-3.787.522-.489 1.193-.832 1.822-1.194 3.732-2.151 8.015-.847 10.382 1.61 2.688 2.791 4.87 5.957 6.373 9.541.451 1.074 1.027 1.599 2.234 1.61 1.859.019 3.716.22 5.576.312.974.049.968.016 1.322-.875 2.41-6.043 6.383-10.832 11.692-14.549a28.33 28.33 0 0 1 5.525-3.031c2.341-.957 4.637-.963 6.939.117 3.715 1.742 6.768 4.299 9.115 7.637 1.629 2.314 3.063 4.768 4.602 7.148 2.257 3.494 3.521 7.355 4.284 11.41.442 2.346.871 4.693 1.313 7.041.057.301.16.592.296 1.074.713-1.238 1.292-2.346 1.96-3.395 2.488-3.91 4.555-8.041 6.091-12.404.924-2.624 1.545-5.359 2.23-8.063.187-.732.145-1.529.157-2.298.071-3.968.102-7.937.192-11.903.12-5.144.61-10.258 1.35-15.35.609-4.205 1.155-8.419 1.789-12.62.736-4.881 1.554-9.75 2.305-14.629.438-2.84.738-5.702 1.236-8.53.639-3.625 1.352-7.24 2.151-10.834.536-2.4.565-4.715-.299-7.041-1.029-2.77-1.936-5.586-3.008-8.338a595.836 595.836 0 0 0-5.578-13.854c-1.438-3.436-3.063-6.791-4.53-10.213-1.741-4.059-3.365-8.166-4.309-12.498-.301-1.383-.536-2.797-.152-4.209.146-.541.333-1.09.613-1.569.72-1.228 1.884-1.646 3.229-1.175 1.498.521 2.675 1.486 3.617 2.755 1.389 1.868 2.421 3.933 3.224 6.103 1.489 4.024 2.925 8.068 4.387 12.104.23.636.479 1.266.719 1.896l.24-.049c-.087-1.17-.104-2.35-.271-3.508a797.325 797.325 0 0 0-1.966-12.961c-.725-4.475-1.507-8.945-1.766-13.475-.115-2.051.027-4.125.176-6.178.056-.783.368-1.58.715-2.3.733-1.53 2.178-2.067 3.766-1.491 1.546.559 2.712 1.594 3.59 2.959.989 1.539 1.821 3.164 2.322 4.928.894 3.152 2.022 6.256 2.419 9.521.407 3.371.636 6.764.94 10.146.027.318.039.637.196.973.122-.575.24-1.15.366-1.727.731-3.318 1.395-6.654 2.227-9.949.402-1.596 1.077-3.133 1.72-4.657.26-.62.706-1.188 1.163-1.692 1.167-1.289 2.656-1.359 3.991-.248.972.807 1.527 1.857 1.838 3.071.569 2.241.53 4.513.172 6.755-.869 5.432-1.687 10.881-2.809 16.264-1.071 5.146-2.563 10.205-3.762 15.328a479.528 479.528 0 0 0-3.194 14.709c-.6 2.978-.874 6-.867 9.051.019 7.775.095 15.556-.089 23.328-.098 4.158-.617 8.312-1.064 12.453-.42 3.901-.934 7.795-1.52 11.676-.507 3.361-1.137 6.703-1.773 10.041-1.412 7.395-2.69 14.818-4.341 22.16-2.085 9.277-3.838 18.639-6.576 27.758-1.922 6.402-4.003 12.756-7.228 18.656-2.816 5.156-5.843 10.182-9.294 14.947-3.455 4.771-6.485 9.795-8.617 15.309-1.885 4.881-3.252 9.922-4.423 15.016a57.803 57.803 0 0 0-1.47 11.541c.003.37-.053.731-.113 1.204m-10.122-95.533c-2.163-2.396-2.336-5.257-1.803-8.29-.21.058-.304.058-.355.103-4.104 3.509-5.979 8.033-6.097 13.363-.014.65.276 1.094.856 1.328 1.048.426 2.102.844 3.166 1.221 4.079 1.447 8.28 2.225 12.614 2.088 1.283-.041 2.563-.324 3.836-.547.562-.098 1.073-.328 1.283-.969.814-2.486 1.32-5.008.98-7.639-.042-.326-.173-.643-.289-1.063-.33.297-.538.482-.743.672-1.527 1.406-3.323 2.289-5.346 2.717-2.622.559-4.987.105-6.96-1.824a65.04 65.04 0 0 1-1.142-1.16m-6.45 23.703c-10.623.396-21.096-.742-31.428-3.17-3.66-.857-7.271-1.934-10.892-2.955-.995-.279-2.027-.549-2.657-1.543-.385-.605-.855-.688-1.33-.387-.489.311-.714.957-.416 1.486.211.377.509.768.87.98.795.471 1.621.934 2.493 1.213 2.117.686 4.264 1.275 6.404 1.883 7.695 2.18 15.551 3.502 23.507 4.164 3.621.301 7.274.234 10.913.303 5.317.102 10.592-.414 15.826-1.299 3.356-.568 6.642-1.438 9.766-2.838 1.08-.484 2.108-1.031 2.893-1.953.468-.549.732-1.162.644-1.895-.063-.527-.325-.934-.884-1.012-.573-.08-.954.225-1.035.783-.141.967-.788 1.5-1.588 1.842-1.448.621-2.898 1.266-4.401 1.725-6.009 1.835-12.208 2.405-18.685 2.673m-21.628-24.182c-.144.109-.333.189-.424.33-2.837 4.459-9.197 4.736-12.368.521-1.559-2.074-1.644-4.408-1.122-6.834.061-.284.11-.57.204-1.059-.471.279-.774.404-1.008.606-3.46 2.993-5.473 6.747-5.914 11.319-.059.605.186.982.692 1.289 1.328.803 2.719 1.488 4.259 1.693 1.961.26 3.942.375 5.913.563 3.059.291 5.936-.506 8.785-1.463 1.171-.395 1.748-1.209 1.807-2.449.073-1.518-.067-2.988-.824-4.516m50.983 125.473c-.015-.039-.028-.08-.044-.119-.013.039-.027.08.044.119z"/><path fill="#36CE9A" d="M534.477 523.447c-.436 2.145-1.942 3.391-3.732 4.359-2.241 1.215-4.688 1.748-7.207 1.912-3.573.232-5.725-1.771-6.971-4.609-.6-1.363-1.438-1.982-2.854-1.926-1.734.072-3.47.166-5.204.252-2.11.105-4.189-.1-6.264-.518-1.539-.311-3.105-.48-4.661-.707-2.681-.391-5.343-.797-7.773-2.146-1.643-.914-3.45-1.215-5.348-1.314-3.019-.162-6.011-.635-8.977-1.258a396.405 396.405 0 0 0-8.069-1.59c-2.497-.469-4.995-.934-7.504-1.33-2.188-.348-4.392-.609-6.59-.891a260.757 260.757 0 0 0-5.645-.666c-1.966-.203-3.938-.338-5.903-.549-2.044-.219-4.101-.398-6.118-.77-2.457-.451-4.895-1.031-7.315-1.652-2.242-.574-4.416-1.438-6.332-2.711-1.178-.781-2.121-1.975-3.017-3.104-.688-.867-.517-2.002-.401-3.15 1.173-1.703 2.339-3.303 3.484-4.918.538-.76 1.03-1.551 1.551-2.322a16.945 16.945 0 0 0 2.438-5.52 2285.214 2285.214 0 0 1 4.868-19.672c.477-1.881 1.065-3.736 1.687-5.574.932-2.76 1.915-5.502 2.923-8.232.35-.947.901-1.816 1.253-2.762a69.185 69.185 0 0 0 1.653-4.936c.13-.449.01-1.063-.2-1.504-.884-1.863-1.887-3.674-2.77-5.537-1.297-2.74-2.701-5.449-3.742-8.289-1.297-3.539-2.053-7.229-1.963-11.053.146-6.283 2.816-11.371 7.279-15.625.553-.525 1.202-.961 1.839-1.389.683-.459 1.053-1.029 1.153-1.875.314-2.631.995-5.172 2.324-7.488 1.891-3.293 4.226-6.233 7.252-8.561 1.568-1.205 3.339-1.988 5.373-1.978 2.503.014 4.736.841 6.46 2.632 2.709 2.818 4.913 6.018 6.429 9.641.405.971.898 1.477 2.028 1.496 1.938.037 3.874.25 5.811.4.585.045.952-.09 1.198-.723 2.422-6.225 6.495-11.129 11.983-14.898a28.913 28.913 0 0 1 5.21-2.85c2.373-.992 4.714-.979 7.06.095 3.72 1.7 6.618 4.312 8.745 7.796 2.792 4.574 5.166 9.355 6.83 14.453 1.204 3.689 1.604 7.484 1.289 11.379-.41 5.047-1.683 9.889-3.267 14.65-1.494 4.494-2.935 8.994-3.881 13.643-.18.883-.11 1.641.362 2.424 1.938 3.201 3.284 6.668 4.528 10.186 1.961 5.543 3.362 11.232 4.579 16.975.113.541.275 1.072.46 1.777.615-.48 1.065-.875 1.559-1.207 1.038-.701 2.061-1.441 3.164-2.021.617-.326 1.386-.365 2.276-.512.885.365 1.577.709 2.285 1.137.853 1.576 1.146 3.172.874 4.859-.728 4.527-2.616 8.521-5.633 12.043-.624.354-1.188.668-1.703 1.049-.239.18-.463.463-.56.744-.443 1.297-.845 2.609-1.248 3.92-.073.24-.082.5-.159.994 1.004-.449 1.804-.809 2.688-1.18 2.127-1.129 4.169-2.244 6.299-3.369.818-.4 1.55-.791 2.367-1.215.771-.26 1.456-.488 2.231-.715.433-.078.773-.156 1.192-.188 1.946.137 3.184 1.027 3.679 2.871.03.113.112.211.169.404.09.346.183.604.262.965.054 2.77-.714 5.168-2.284 7.316-.158.217-.241.488-.436.775-.519.451-.962.859-1.479 1.324-1.813 1.377-3.735 2.285-5.916 2.566-1.44.186-2.89.311-4.334.469-.289.033-.575.09-1.065.168 1.352 1.465 2.864 2.225 4.506 2.668 1.909.516 3.858.887 5.801 1.271.746.148 1.52.164 2.386.262 1.521.074 2.914.264 4.283.857.669.699.943 1.479.979 2.43a7.166 7.166 0 0 1-1.59 2.84c-.176.193-.278.455-.407.689.009.004.012-.016-.048-.02-.06-.006-.16.061-.236.086-2.237 2.248-4.878 3.488-8.058 3.854-1.539-.029-2.963-.063-4.445-.094.092.576.545.775.972.951 1.183.494 2.369.979 3.572 1.418 1.012.381 1.591 1.053 1.716 2.118m-15.851-17.569c1.109-.516 2.324-.842 3.274-1.873-1.106-.375-2.132-.404-3.363-.023-.495.156-1.045.223-1.478.484-1.542.938-3.05 1.934-4.557 2.926-.2.133-.324.377-.483.57.041.07.082.139.125.207 2.105-.757 4.21-1.515 6.482-2.291m-80.086-4.691c2.977 1.627 5.937 3.285 8.937 4.867 2.762 1.455 5.665 2.58 8.726 3.215 4.573.945 9.16 1.828 13.752 2.678 1.501.275 3.033.473 4.557.514 2.951.08 5.905.025 8.857.021.323 0 .651.006.968-.047 4.278-.701 8.193-2.414 11.973-4.438 1.917-1.027 3.768-2.205 5.553-3.451 1.708-1.193 3.292-2.564 5.094-3.926 2.521-1.518 4.928-3.238 7.818-4.176-.146-.492-.243-.879-.374-1.252-1.321-3.781-2.6-7.578-3.986-11.334-1.373-3.719-2.854-7.396-4.299-11.086-.139-.355-.188-.82-.773-.855-.524.305-.615.889-.771 1.418-.592 2.018-1.135 4.049-1.75 6.059-.974 3.176-1.864 6.371-2.197 9.684-.362 3.604-.612 7.221-.892 10.832-.018.215.151.441.006.664-.604.006-1.211.035-1.814.014-2.171-.078-4.341-.172-6.511-.486.027-1.092-.034-2.193.098-3.271.592-4.857 1.189-9.713 1.88-14.557a514.012 514.012 0 0 1 2.214-14.139c.926-5.393 2.276-10.676 4.544-15.688.088-.193.132-.406.235-.734-1.251.363-2.316.744-3.415.98-3.437.74-6.866 1.533-10.332 2.107-5.308.879-10.647 1.355-16.054 1.158a81.385 81.385 0 0 1-19.007-2.971c-.45-.125-.914-.195-1.58-.336.211.617.319 1.041.496 1.43.567 1.252 1.175 2.486 1.742 3.74.699 1.547 1.465 3.07 2.045 4.664 2.125 5.834 2.862 11.955 3.312 18.084a59.781 59.781 0 0 1-1.907 20.004c-3.079.08-6.159.172-9.24.227-.404.008-.813-.168-1.125-.398 1.052-1.623 1.53-3.453 2.012-5.299 1.647-6.324 2.853-12.691 2.341-19.283-.295-3.799-1.147-7.428-2.927-10.809-.427-.813-.969-1.564-1.589-2.557-7.426 11.041-11.922 23.016-14.766 35.744.33.104.552.191.778.244 2.139.492 4.18 1.256 6.163 2.188.359.168.753.274 1.208.557m61.493-109.008c-3.693-1.656-7.07-1.109-10.147 1.472-1.286 1.079-2.286 2.396-3.104 3.851-1.569 2.791-2.503 5.766-2.61 8.984-.033 1.004.338 1.717 1.283 2.111.855.357 1.681.811 2.562 1.086 1.56.49 3.148.877 4.705 1.303.073-.195.102-.23.095-.26-.021-.076-.056-.148-.08-.227-.913-2.83-.38-5.383 1.661-7.516 3.669-3.828 9.894-2.689 12.127 2.16.171.373.336.748.504 1.123.674-6.151-1.367-10.936-6.996-14.087m-36.626 10.192c1.073 1.535 1.472 3.264 1.477 5.16.265-.32.438-.654.554-1.012.393-1.209.171-2.422-.163-3.578-1.296-4.484-4.376-7.359-8.562-9.119-1.563-.656-3.256-.648-4.863-.037-1.575.602-2.852 1.651-3.966 2.914-2.244 2.539-3.234 5.648-4.021 8.844-.313 1.271-.116 1.799 1.128 2.334 1.66.713 3.411 1.215 5.128 1.793.085.029.214-.072.318-.111-1.16-4.439.147-7.814 3.656-9.582 3.136-1.579 7.071-.634 9.314 2.394m-15.828 21.398c.354.08.709.168 1.065.236 4.94.93 9.827.479 14.696-.559 2.332-.496 4.659-1.078 7.021-1.355 3.516-.416 7.021-.039 10.511.555 5.523.941 11.066 1.361 16.671.656 5.029-.635 9.444-2.729 13.648-5.393.398-.254.75-.627 1.03-1.014.253-.346.26-.779-.137-1.08-.343-.264-.65-.139-.986.1-1.051.746-2.08 1.541-3.203 2.16-3.023 1.664-6.16 3.035-9.622 3.559-5.59.844-11.155.541-16.674-.441-5.653-1.01-11.229-1.145-16.836.318-4.074 1.064-8.229 1.658-12.48 1.385-3.192-.205-6.229-1.012-9.174-2.156-1.375-.533-2.78-1.139-3.62-2.525-.112-.184-.672-.314-.829-.203-.236.172-.497.678-.401.871.272.561.632 1.146 1.112 1.525 1.375 1.088 2.952 1.832 4.632 2.342 1.123.339 2.253.654 3.576 1.019z"/><path fill="#34CC9A" d="M99.897 501.787c-.69.986-1.357 1.992-2.075 2.957-1.287 1.73-2.879 3.158-4.58 4.469-.904.695-1.962.77-3.007.535-.88-.197-1.683-.637-1.959-1.619-.641-2.283-1.51-4.518-1.636-7.01-.217-1.73-.43-3.379-.524-5.035-.164-2.881.173-5.742.55-8.592.783-5.91 2.377-11.645 3.764-17.426.914-3.809 1.53-7.693 2.154-11.564.359-2.232.469-4.506.69-6.76.376-3.844-.639-7.207-3.418-9.975a78.96 78.96 0 0 1-3.237-3.441c1.58-1.65 3.167-3.193 4.802-4.688 2.021-1.846 4.092-3.637 6.119-5.477 2.236-2.029 4.443-4.094 6.675-6.129.226-.205.542-.313.817-.463-.257 3.43-.645 6.854-.734 10.287-.1 3.803-.793 7.463-1.863 11.09-.778 2.635-1.585 5.273-2.147 7.961-1.094 5.225-2.144 10.463-2.988 15.73-.789 4.922-.955 9.908-.789 14.896.026.797.178 1.586.295 2.578.313-.311.524-.465.669-.67 2.873-4.031 5.364-8.271 7.397-12.801 1.174-2.613 2.631-5.105 4.033-7.613 1.062-1.896 2.563-3.428 4.335-4.691.935-.666 1.009-.873.648-1.928-.288-.84-.618-1.67-.971-2.486-1.443-3.342-2.921-6.672-4.348-10.02a21.563 21.563 0 0 1-1.511-5.484c-.296-2.109-.053-4.135.958-6.01 1.17-2.174 2.333-4.359 3.667-6.432 1.317-2.047 1.938-4.246 2.087-6.629.156-2.504.281-5.012.485-7.512.215-2.631.559-5.26 1.851-7.615 2.383-4.346 5.98-7.098 10.959-7.73 2.366-.301 4.673.221 6.81 1.336 2.651 1.385 4.715 3.396 6.287 5.928a87.844 87.844 0 0 1 1.502 2.498c.36.627.834.971 1.588.814 2.692-.559 5.386-1.104 8.076-1.67 1.163-.246 1.883-.92 2.261-2.102.937-2.93 2.476-5.539 4.522-7.834 2.146-2.405 4.741-3.918 8.075-3.752 1.941.097 3.724.791 5.352 1.814 5.326 3.348 9.545 7.727 12.318 13.422 1.223 2.512 2.572 4.973 3.607 7.561 1.798 4.492 2.97 9.18 3.198 14.023.173 3.68-.63 7.26-2.045 10.654-1.446 3.475-3.036 6.887-4.557 10.328-.718 1.627-1.524 3.215-1.672 5.041-.105 1.295-.132 1.238.992 1.816a5.25 5.25 0 0 1 1.582 1.271c1.227 1.467 1.869 3.244 2.143 5.094.8 5.4 1.497 10.816 2.226 16.41.039.385.085.586.133.787.02.178.041.355.032.66.01.264.048.398.085.533.007.178.014.354.009.688.027.289.065.422.103.553.027.41.054.82.032 1.396-.002.529.044.891.09 1.252.007.104.015.209.01.482.013.287.038.406.063.525.05.492.1.984.104 1.621.006.359.059.576.112.793.059.576.118 1.152.136 1.867.005.273.052.408.099.543.058.506.117 1.01.125 1.666.002.439.055.725.108 1.008.002.576.005 1.152-.052 1.881-.035.365-.011.578.013.793-.024.328-.049.658-.13 1.131-.089.215-.087.287-.049.357-.037.322-.073.646-.133 1.064-.138.436-.339.771-.354 1.117-.107 2.529-1.326 4.555-2.944 6.352-2.152 2.389-4.776 4.055-7.918 4.895-2.533.678-5.017 1.543-7.565 2.146-1.912.453-3.886.668-5.841.916-2.715.346-5.437.635-8.158.926-1.883.201-3.771.354-5.653.553-1.921.203-3.838.455-5.759.658-1.923.201-3.846.449-5.776.533-3.226.145-6.457.25-9.684.211-1.347-.016-2.72-.344-4.022-.729-.732-.215-1.485-.717-1.983-1.299-1.3-1.52-1.137-3.088.428-4.662a2.61 2.61 0 0 1 .725-.143c.135-.02.194-.066.336-.143 1.804-.541 3.464-.105 5.122.244 3.629.768 7.217 1.701 10.942 2.02 2.032.172 3.937-.121 5.849-.646.248-.068.439-.346.851-.688-.89-.398-1.521-.746-2.194-.971-2.335-.779-4.683-1.521-7.029-2.271-.769-.244-1.568-.408-2.315-.705-2.553-1.012-5.112-2.016-7.625-3.119-2.594-1.141-5.066-2.52-7.332-4.242-1.043-.793-1.689-1.818-1.911-3.125-.308-1.813.794-3.357 2.62-3.512a7.635 7.635 0 0 1 2.164.135c2.199.451 4.215 1.385 6.155 2.492 1.431.816 2.867 1.629 4.292 2.445-.008.002-.014-.014.021.053.125.111.216.154.377.232.298.195.52.371.757.521 2.129 1.342 4.262 2.68 6.333 4.043-.099.039-.144.045-.172.07a.229.229 0 0 0-.054.1c2.702 1.863 5.537 3.482 8.638 4.59.385.137.846.063 1.221.084.339-.715-.136-.922-.483-1.172a537.54 537.54 0 0 0-4.934-3.521c-.22-.154-.503-.221-.798-.402-2.5-2.139-4.519-4.564-6.114-7.357-.771-1.35-1.04-2.768-.942-4.295.091-1.436 1.35-2.445 2.743-2.109.503.121.97.389 1.462.563.37.131.754.221 1.14.418.407.965 1.151 1.467 2.002 1.963a600.968 600.968 0 0 0 4.419 5.947c.178.234.466.387.69.668.029.363.007.666.123.9.832 1.701 1.636 3.42 2.559 5.072.77 1.377 1.763 2.609 3.125 3.473 1.053.67 2.179 1.104 3.438.67 1.823-.627 3.65-1.25 5.439-1.967.734-.293 1.372-.822 2.139-1.254.867-.506 1.712-.93 2.417-1.52 1.416-1.186 2.754-2.459 4.212-3.725a370.653 370.653 0 0 0 3.59-1.668c-.067-8.787-.485-17.412-1.367-26.01l-.246-.031c-.071.121-.142.24-.279.314-.513-1.135-.977-2.234-2.161-2.713-1.49-.605-3.016-1.109-4.645-1.199.124-.486.214-.881.351-1.26.797-2.207 1.592-4.414 2.416-6.609.262-.697.361-1.346-.251-1.891-.645-.572-1.244-.146-1.763.209-2.228 1.523-4.74 2.412-7.216 3.418-3.959 1.607-8.115 2.199-12.304 2.539-3.26.264-6.544.264-9.813-.178-2.002-.271-4.033-.326-6.035-.6-4.169-.566-8.284-1.422-12.354-2.496-.692-.182-1.49-.479-2.049.191-.565.678-.091 1.359.221 2.021.971 2.059 1.653 4.209 1.946 6.453-3.167.68-6.207 1.451-9.108 2.678-1.811.768-3.114 1.973-3.418 4.031-.147.996.195 1.902.438 2.834.117.449.142.922.154 1.445-1.267 2.115-2.495 4.162-3.689 6.227-2.41 4.166-4.803 8.34-7.198 12.516-.265.459-.485.93-.722 1.391m66.815-67.948c.644-.826 1.373-1.6 1.906-2.49.479-.801.163-1.557-.728-1.838-.671-.209-1.439-.33-2.125-.229-1.234.186-2.448.537-3.655.869-3.043.84-6.083 1.707-9.237 2.018-2.134.209-4.276.336-6.413.512-3.594.297-7.188.43-10.792.18-2.18-.15-4.365-.24-6.549-.301-.635-.018-1.293.1-1.908.271-.846.234-1.154.938-1.283 1.75-.123.771.308 1.219.899 1.564.873.512 1.771.982 2.631 1.514 4.445 2.744 9.279 3.857 14.485 3.676 5.037-.176 9.854-1.305 14.551-3.029 2.899-1.066 5.679-2.371 8.218-4.467m-5.41-21.197c.104-.125.203-.252.313-.371 3.978-4.324 10.673-2.988 12.923 1.84.115.248.274.475.466.803.722-.213 1.411-.43 2.108-.617.428-.115.582-.4.582-.807 0-1.088.083-2.188-.021-3.268-.449-4.717-2.5-8.695-5.893-11.936-3.03-2.895-7.145-3.051-10.322-.271-1.113.973-2.045 2.068-2.747 3.367-1.205 2.23-2.067 4.582-2.33 7.111-.253 2.436-.048 4.838.788 7.273l2.375.152c.605-1.151 1.127-2.145 1.758-3.276m-38.894-10.486c-2.802 2.693-4.477 5.98-5.258 9.775-.454 2.205-.676 4.389-.156 6.607.302 1.291.419 1.428 1.736 1.559.308.031.622.004.946.004.638-4.016 2.711-6.742 6.737-7.332 4.44-.65 7.284 1.648 8.934 5.783.975-.344 1.872-.686 2.786-.973.635-.201.87-.58.9-1.242.105-2.285-.075-4.525-.828-6.701-1.389-4.01-3.725-7.145-7.875-8.646-2.789-1.01-5.395-.805-7.922 1.166z"/><path fill="#34CC9A" d="M82.951 435.853c-2.809-1.842-4.423-4.422-4.776-7.771-.034-.318-.102-.674-.004-.963.421-1.238.247-2.381-.189-3.604-.284-.799-.251-1.766-.155-2.635.229-2.07 1.649-3.334 3.949-3.547.067-1.357.788-2.453 1.782-3.375 1.867-1.734 4.021-2.533 6.565-1.877 1.642.422 3.269.898 4.903 1.348.74.205 1.482.398 2.222.604 1.156.32 2.151.227 3.137-.643 1.067-.939 2.459-1.174 3.878-1.084 1.578.1 2.576.941 2.95 2.674-.676.414-1.329.633-1.936.938-.433.219-.795.549-.761 1.135.1 1.703-.855 2.738-2.299 3.346-1.06.445-2.186.734-3.284 1.094.41.115.845.207 1.255.361.625.234.822.576.689 1.227-.063.309-.165.67-.377.877-.775.752-1.533 1.559-2.428 2.145-1.499.98-3.216 1.229-4.999 1.105-.417-.029-.908.021-1.255.225-.548.318-1.002.797-1.424 1.148.792 1.803.563 2.586-.906 3.434-.484.279-1.022.576-1.56.631-1.56.152-2.657.982-3.586 2.148a5.057 5.057 0 0 1-.768.773c-.173.136-.413.192-.623.286zM557.801 460.251c1.374-.09 2.721.063 3.726 1.086 1.763 1.797 3.353 3.701 3.885 6.301.419 2.045.526 4.07.267 6.139-.394 3.125-2.454 5.084-5.931 5.408-.98-.16-1.764-.322-2.61-.547-1.691-1.365-2.377-3.139-2.484-5.148-.182-3.336.245-6.609 1.227-9.873.683-1.159 1.302-2.264 1.92-3.366zM558.746 485.869c.403.016.811.008 1.211.051 1.615.18 2.794.941 3.439 2.496.504 1.217.829 2.443.723 3.771-.186 2.275-.574 4.494-1.643 6.547-.969 1.865-2.451 3.078-4.705 3.572-.403-.004-.607-.023-.807-.002-1.419.162-2.24-.568-2.851-1.764-.65-1.273-.652-2.611-.287-3.883.801-2.779 1.728-5.525 2.669-8.264.388-1.118 1.002-2.128 2.251-2.524z"/><path fill="#B2F4D1" d="M82.935 435.945c.227-.186.467-.242.64-.383.281-.229.543-.49.768-.773.929-1.166 2.026-1.994 3.586-2.148.537-.053 1.076-.35 1.56-.629 1.469-.85 1.698-1.633.906-3.436.421-.352.876-.828 1.424-1.148.348-.201.839-.254 1.255-.225 1.783.125 3.5-.123 4.999-1.104.896-.586 1.653-1.393 2.428-2.146.212-.207.314-.568.377-.877.133-.648-.064-.99-.689-1.227-.411-.154-.845-.246-1.255-.361 1.098-.357 2.225-.646 3.284-1.094 1.444-.605 2.399-1.641 2.299-3.344-.034-.586.328-.918.761-1.135.607-.307 1.26-.523 1.96-.846 1.343.836 1.218 2.064.358 3.303-.478.689-1.119 1.262-1.652 1.916-.297.365-.524.787-.846 1.23-.338.201-.655.307-.881.512-2.232 2.035-4.439 4.1-6.675 6.131-2.027 1.84-4.098 3.629-6.119 5.475-1.634 1.494-3.222 3.037-4.861 4.633-1.055.412-1.63 1.275-2.231 2.063-1.384 1.809-3.236 3.023-5.143 4.17-.219.131-.689.113-.871-.041-.164-.139-.195-.59-.109-.844a49.194 49.194 0 0 1 1.321-3.516c.166-.391.53-.699.814-1.037.854-1.012 1.716-2.02 2.592-3.119z"/><path fill="#08FEBF" d="M557.742 460.191a26.155 26.155 0 0 1-1.944 3.395c-1.747-.969-3.485-1.627-5.331-1.912-2.229-.344-4.471-.639-6.719-.795-2.249-.156-4.514-.182-6.769-.137-1.534.027-2.813.715-3.579 2.119a35.429 35.429 0 0 0-1.35 2.693c-.682 1.547-1.31 3.119-1.96 4.684a97.41 97.41 0 0 0-2.174-1.057c.51-2.379 1.206-4.701 2.389-6.842.369-.668.784-1.332 1.288-1.898 1.243-1.404 2.807-2.127 4.725-2.037 3.554.166 7.106.32 10.663.439 1.815.063 3.638-.016 5.452.059 1.82.072 3.646.201 5.309 1.289zM558.776 485.753c-1.279.512-1.895 1.521-2.279 2.645-.941 2.734-1.868 5.48-2.669 8.262-.365 1.271-.363 2.607.287 3.883.609 1.193 1.432 1.926 2.851 1.764.198-.021.402-.002.71-.006-.445.037-1.008.033-1.546.145-.253.053-.619.291-.664.502-.648 3.064-1.253 6.141-1.868 9.215-.008.039-.009.08-.015.221a3.02 3.02 0 0 1-.274.791c-1.191.252-2.069.797-2.813 1.607-.149.162-.393.24-.57.256.612-3.527 1.216-6.949 1.788-10.377.813-4.865 1.777-9.693 3.092-14.457 1.043-3.775 2.028-7.578 2.395-11.502.783.162 1.565.324 2.447.492-.217 2.149-.53 4.298-.872 6.559z"/><path fill="#8FE3C7" d="M189.862 484.951c-.096-.295-.142-.656-.137-1.082.097.297.142.656.137 1.082zM190.621 493.466c-.105-.227-.158-.512-.159-.854.104.227.157.511.159.854zM190.583 496.15c-.077-.166-.101-.381-.069-.639.078.168.1.379.069.639zM190.148 488.384c-.1-.162-.152-.379-.157-.645.101.165.153.378.157.645zM190.38 490.81c-.091-.094-.138-.229-.138-.402.092.092.137.226.138.402zM189.496 479.859c-.082-.127-.129-.328-.16-.607.076.124.135.328.16.607zM189.619 481.085c-.078-.094-.116-.229-.119-.402.077.094.118.227.119.402zM189.927 485.978c-.066-.07-.091-.189-.099-.4.058.056.099.205.099.4zM189.727 482.302c-.074-.064-.112-.195-.134-.396.068.064.119.197.134.396zM190.392 497.644c-.079-.029-.081-.102-.016-.221.096.024.104.098.016.221z"/><path fill="#FEFFFF" d="M282.495 495.949c-.577-3.604-1.15-7.203-1.469-10.824-.501-5.693-1.849-11.154-3.936-16.459-.918-2.334-1.759-4.697-2.576-7.07-1.122-3.258-2.502-6.402-4.037-9.484-.09-.182-.179-.361-.264-.545-.233-.508-.324-1.012.078-1.479.43-.5.958-.66 1.628-.57 3.122.414 6.239.947 9.377 1.146 3.993.252 8.009.398 12.005.27 5.373-.178 10.739-.57 16.05-1.541 4.933-.9 9.89-1.66 14.84-2.459.741-.121 1.567-.33 2.137.42.585.771.062 1.463-.255 2.146-2.37 5.113-4.42 10.352-5.669 15.855a243.47 243.47 0 0 0-2.596 12.961c-.591 3.465-.884 6.979-1.359 10.465-.308 2.242-.706 4.473-1.087 6.811-5.479.031-10.936-.072-16.393-.092-2.422-.008-4.844.17-7.267.236-3.029.082-6.059.137-9.207.213z"/><path fill="#B2F4D1" d="M125.654 510.224c-.181.021-.362.041-.634.068-.158-.34-.144-.73-.306-1.023-.751-1.357-1.561-2.684-2.328-4.033-.353-.621-.656-1.27-1.052-2.041-.742-1.658-1.41-3.184-2.095-4.697-.058-.129-.231-.207-.371-.402-.369-.988-.691-1.896-1.073-2.779-.864-1.992-1.78-3.963-2.632-5.961-1.01-2.367-1.964-4.758-2.973-7.125-.108-.254-.42-.42-.638-.625-.067-.461-.091-.934-.208-1.383-.243-.932-.584-1.838-.438-2.834.304-2.059 1.607-3.266 3.418-4.029 2.902-1.229 5.941-2 9.197-2.703 2.801-.484 5.383-1.096 8.049-1.24 2.688-.146 5.369-.633 8.053-.633 10.216 0 20.436-.328 30.649.195 1.64-.01 3.166.496 4.656 1.1 1.184.479 1.648 1.578 2.171 2.828.035 1.086.135 2.043-.075 2.928-.595 2.506-1.321 4.98-1.984 7.471-.134.504-.222 1.021-.377 1.586-.082.242-.116.434-.217.68a101.059 101.059 0 0 0-1.194 3.744c-1.107 3.652-2.212 7.309-3.36 11.049-.737 1.678-.929 3.387-1.217 5.074-.682.424-1.32.955-2.054 1.248-1.789.717-3.616 1.34-5.439 1.967-1.258.432-2.385 0-3.438-.67-1.362-.863-2.356-2.096-3.125-3.475-.922-1.65-1.727-3.369-2.559-5.07-.115-.234-.094-.537-.064-.965 2.124-3.859 1.551-8.654.141-10.025-1.76 1.119-3.552 2.262-5.345 3.4-.814-.424-1.559-.926-1.934-1.979.396-1.623.776-3.066 1.134-4.518.265-1.068.16-1.146-.906-1.576-2.559-1.035-6.088.107-7.811 2.414-1.029 1.379-1.793 2.873-2.164 4.564-.472 2.158-.125 4.258.39 6.355.083.334.094.688.139 1.029-1.433-.813-2.869-1.625-4.3-2.441-1.94-1.107-3.956-2.041-6.155-2.492a7.672 7.672 0 0 0-2.164-.135c-1.825.154-2.927 1.699-2.62 3.512.222 1.307.868 2.332 1.911 3.125 2.265 1.725 4.737 3.102 7.332 4.242 2.514 1.104 5.072 2.107 7.625 3.121.748.295 1.547.459 2.315.705 2.346.746 4.694 1.488 7.029 2.27.672.225 1.304.572 2.194.971-.412.342-.603.619-.851.688-1.912.525-3.817.818-5.849.646-3.725-.316-7.313-1.252-10.942-2.02-1.657-.35-3.317-.785-5.179-.244-.231.027-.29.072-.332.138m-8.23-31.586c-.091.342-.261.684-.257 1.023.008.695.577 1.197 1.257 1.201.666.004 1.253-.521 1.316-1.176.068-.707-.455-1.416-1.154-1.443-.337-.015-.683.167-1.162.395z"/><path fill="#34CC9A" d="M549.903 515.138c.2-.117.442-.195.593-.359.742-.811 1.62-1.354 2.804-1.529 2.61.158 4.077 2.246 3.438 4.875-.638 2.615-1.815 4.99-3.559 7.051-.723.855-1.717 1.246-2.842 1.428-1.73.283-3.029-.5-4.369-1.607-.48-1.043-.658-2.006-.501-3.078.658-1.24 1.167-2.479 1.887-3.578.744-1.14 1.691-2.142 2.549-3.203z"/><path fill="#08FEBF" d="M545.412 521.978c-.103 1.01.076 1.973.475 2.99-2.049.393-4.134.531-6.101-.15-1.688-.588-3.423-.889-5.227-1.334-.209-1.102-.786-1.773-1.794-2.145a85.816 85.816 0 0 1-3.572-1.418c-.427-.178-.88-.377-.972-.953 1.482.033 2.906.064 4.499.158 2.604.873 5.017 1.768 7.481 2.469 1.685.479 3.427.932 5.211.383z"/><path fill="#37CE9B" d="M118.812 500.789c.022-.795.044-1.59.071-2.492.125-.006.298.07.356.199a160.93 160.93 0 0 1 2.022 4.654 8.587 8.587 0 0 1-1.98-.176c-.183-.039-.304-.361-.486-.654a5.666 5.666 0 0 1 .032-.988c.013-.299-.001-.42-.015-.543z"/><path fill="#FBFEFD" d="M313.585 400.128c.4.41.738.758 1.086 1.098 1.973 1.932 4.338 2.383 6.96 1.824 2.021-.428 3.817-1.311 5.346-2.717.205-.189.413-.375.743-.672.116.42.247.734.289 1.063.34 2.629-.166 5.152-.98 7.639-.21.641-.723.871-1.283.969-1.272.223-2.553.506-3.836.547-4.334.137-8.535-.641-12.614-2.088a74.572 74.572 0 0 1-3.166-1.221c-.58-.234-.87-.678-.856-1.328.119-5.33 1.994-9.855 6.097-13.363.053-.045.146-.043.355-.103-.535 3.034-.362 5.895 1.859 8.352z"/><path fill="#F4FCFA" d="M307.195 423.767c6.357-.266 12.558-.836 18.564-2.668 1.503-.459 2.953-1.104 4.401-1.725.8-.342 1.447-.877 1.588-1.842.081-.561.462-.863 1.035-.783.559.076.819.482.884 1.012.09.73-.176 1.344-.644 1.895-.783.922-1.813 1.469-2.893 1.953-3.124 1.398-6.408 2.27-9.766 2.836-5.234.885-10.509 1.4-15.826 1.301-3.639-.068-7.292-.004-10.913-.305-7.956-.66-15.812-1.984-23.507-4.164-2.141-.605-4.288-1.197-6.404-1.881-.873-.281-1.698-.744-2.493-1.213-.361-.215-.659-.605-.87-.98-.298-.531-.073-1.178.416-1.488.475-.299.945-.219 1.33.389.63.994 1.663 1.262 2.657 1.541 3.621 1.023 7.231 2.098 10.892 2.957 10.335 2.425 20.809 3.564 31.549 3.165z"/><path fill="#FBFEFD" d="M285.503 399.654c.703 1.461.843 2.932.771 4.449-.059 1.242-.636 2.057-1.807 2.449-2.85.957-5.726 1.754-8.785 1.463-1.971-.188-3.952-.301-5.913-.563-1.54-.203-2.931-.891-4.259-1.693-.506-.305-.751-.684-.692-1.287.441-4.574 2.454-8.326 5.914-11.32.234-.203.537-.326 1.008-.605-.094.486-.143.773-.204 1.058-.521 2.425-.437 4.761 1.122 6.833 3.171 4.217 9.531 3.938 12.368-.521.09-.142.28-.22.477-.263z"/><path fill="#8FE3C7" d="M336.39 525.06c-.027-.039-.015-.08-.002-.119.014.039.029.08.002.119z"/><path fill="#FEFFFF" d="M455.898 500.572c1.555-6.584 2.182-13.271 1.688-20.004-.448-6.129-1.187-12.25-3.312-18.084-.58-1.594-1.346-3.117-2.045-4.664-.567-1.254-1.175-2.488-1.742-3.74-.178-.389-.285-.813-.496-1.43.666.141 1.13.211 1.58.336a81.49 81.49 0 0 0 19.007 2.971c5.405.197 10.746-.279 16.054-1.158 3.466-.574 6.896-1.367 10.332-2.107 1.098-.236 2.164-.617 3.415-.98-.104.328-.147.541-.236.734-2.267 5.012-3.617 10.295-4.543 15.688a510.217 510.217 0 0 0-2.214 14.139c-.689 4.844-1.288 9.699-1.88 14.557-.132 1.078-.07 2.182-.209 3.379-4.313.035-8.52-.051-12.725-.1-2.631-.031-5.264-.012-7.895-.006-1.457.002-2.921-.064-4.37.049-3.463.265-6.929.498-10.409.42z"/><path fill="#BDFED2" d="M545.469 521.916c-1.841.611-3.583.158-5.266-.32-2.466-.701-4.878-1.594-7.366-2.469 3.011-.428 5.65-1.668 7.916-3.883a.573.573 0 0 0 .269-.115s-.003.021.078.014c.23-.063.394-.096.528-.174 2.051-1.186 4.096-2.381 6.146-3.564.66-.381 1.326-.754 2.003-1.109.484-.254.544-.666.455-1.129-.099-.506-.496-.611-.923-.564-.352.041-.722.109-1.032.266-1.006.506-1.979 1.072-2.979 1.588-.741.381-1.505.719-2.259 1.076-.068-.867-.344-1.646-.979-2.422.152-.279.297-.424.464-.529 2.607-1.67 5.228-3.322 7.822-5.012.387-.252.753-.621.969-1.023.388-.725 0-1.393-.824-1.471-.718-.068-1.443-.092-2.114.313-1.068.645-2.169 1.232-3.238 1.873a440.205 440.205 0 0 0-6.799 4.146c-.304.189-.471.598-.701.902-.761-.076-1.532-.094-2.279-.242-1.941-.385-3.892-.756-5.801-1.271-1.642-.443-3.154-1.203-4.506-2.668.49-.078.776-.135 1.065-.168 1.445-.158 2.894-.283 4.334-.469 2.181-.281 4.103-1.189 6.003-2.51 2.825.689 4.981-.23 6.563-2.32 1.089-1.438 1.985-3.047 2.784-4.67 1.67-3.391 2.684-7.016 3.419-10.707.567-2.85.601-5.707-.404-8.49-.156-.432-.486-.801-.735-1.262.003-.105.005-.148.093-.197 1.083-.664 1.402-1.164 1.001-1.811-.628-1.012-1.02-2.09-1.373-3.211-.276-.883-1.114-1.18-1.939-.775-.688.338-1.37.699-2.009 1.121-1.72 1.133-3.389 2.342-5.121 3.451a59.396 59.396 0 0 0-7.353 5.508c-.385.34-.803.977-.748 1.418.189 1.508.759 2.902 2.121 3.779.496.32 1.052.43 1.585.014.66-.514 1.323-1.025 1.966-1.521-.177-.521-1.104-.51-.725-1.303.623-.266 1.159.064 1.683.377-.131.268-.232.453-.354.676.599.131 1.1.238 1.688.367-.272.447-.513.813-.727 1.193-.902 1.607-1.798 3.223-2.696 4.836-.686.227-1.37.455-2.141.615-.085-.146-.079-.227-.088-.307-.097-.883-.41-1.238-1.104-1.262-.676-.02-1.115.379-1.219 1.213-.068.553-.033 1.117-.044 1.678-2.043 1.115-4.085 2.232-6.21 3.268.298-1.871.679-3.658 1.06-5.447 2.937-3.508 4.825-7.502 5.554-12.029.271-1.688-.022-3.281-.874-4.859a115.615 115.615 0 0 1 1.945-4.768c.403-.918.867-1.813 1.35-2.691.768-1.406 2.045-2.092 3.579-2.121 2.255-.043 4.52-.02 6.769.137 2.248.156 4.49.453 6.719.797 1.846.285 3.584.943 5.262 1.965-.832 3.24-1.259 6.516-1.077 9.85.107 2.012.793 3.783 2.484 5.148-.302 3.986-1.287 7.787-2.33 11.564-1.313 4.762-2.279 9.59-3.092 14.457-.572 3.428-1.176 6.85-1.788 10.377-.881 1.162-1.828 2.166-2.57 3.301-.723 1.096-1.232 2.334-1.89 3.575m-11.003-48.594c1.511-1.074 3.03-2.137 4.529-3.227a65.881 65.881 0 0 0 2.386-1.855c.396-.318.509-.74.23-1.188-.261-.416-.656-.623-1.145-.441a3.458 3.458 0 0 0-.84.475 671.02 671.02 0 0 0-5.537 4.105 4.615 4.615 0 0 0-.775.768c-.404.482-.362.879.164 1.205.223.136.534.128.988.158z"/><path fill="#8FE3C7" d="M455.79 500.572c3.588.078 7.054-.154 10.521-.424 1.449-.113 2.913-.045 4.37-.049 2.632-.004 5.264-.023 7.895.006 4.205.051 8.41.135 12.725.213 2.281.096 4.451.189 6.622.268.604.021 1.21-.008 2.042-.016 2.229-.119 4.229.406 6.236.029.185-.033.394.057.591.088-1.639 1.293-3.223 2.664-4.931 3.857-1.785 1.246-3.636 2.424-5.553 3.451-3.778 2.023-7.693 3.736-11.973 4.438-.316.053-.645.047-.968.047-2.952.004-5.906.059-8.857-.021-1.522-.041-3.056-.236-4.557-.514a668.612 668.612 0 0 1-13.752-2.678c-3.061-.635-5.964-1.76-8.726-3.215-3-1.582-5.96-3.24-8.899-5.008 1.771-.172 3.511-.186 5.247-.244.468-.016.932-.172 1.396-.262.406.09.814.266 1.22.258 3.082-.052 6.162-.144 9.351-.224z"/><path fill="#FDFEFE" d="M500.116 392.218c5.546 3.111 7.587 7.896 6.909 14.051-.168-.375-.333-.75-.504-1.121-2.233-4.854-8.459-5.99-12.127-2.162-2.042 2.133-2.574 4.686-1.661 7.516.024.076.061.15.079.227.008.027-.021.064-.094.26-1.557-.426-3.146-.813-4.705-1.303-.881-.275-1.705-.729-2.562-1.086-.945-.396-1.316-1.107-1.283-2.111.107-3.221 1.041-6.193 2.61-8.984.818-1.455 1.818-2.771 3.104-3.851 3.081-2.584 6.458-3.131 10.234-1.436z"/><path fill="#FBFEFD" d="M463.354 402.298c-2.189-2.955-6.125-3.898-9.261-2.322-3.509 1.768-4.816 5.143-3.655 9.582-.105.039-.234.141-.319.111-1.717-.578-3.468-1.08-5.128-1.793-1.244-.535-1.44-1.063-1.128-2.334.786-3.193 1.776-6.305 4.021-8.844 1.114-1.262 2.391-2.313 3.966-2.914 1.607-.611 3.302-.621 4.863.037 4.186 1.76 7.267 4.635 8.562 9.119.334 1.156.556 2.369.164 3.578-.115.355-.29.691-.555 1.012-.005-1.896-.404-3.624-1.53-5.232z"/><path fill="#F4FCFA" d="M447.48 423.75c-1.226-.346-2.354-.66-3.478-1.002-1.68-.508-3.257-1.252-4.632-2.342-.48-.379-.84-.965-1.112-1.523-.096-.195.165-.699.401-.871.157-.113.717.02.829.203.84 1.387 2.245 1.992 3.62 2.525 2.945 1.145 5.98 1.949 9.174 2.154 4.253.273 8.406-.318 12.48-1.383 5.607-1.463 11.183-1.328 16.836-.32 5.519.984 11.084 1.285 16.674.441 3.462-.521 6.599-1.893 9.622-3.557 1.124-.619 2.152-1.416 3.203-2.16.337-.238.645-.363.986-.102.396.303.39.736.137 1.082-.28.385-.632.76-1.03 1.012-4.204 2.664-8.619 4.758-13.648 5.393-5.604.707-11.146.285-16.671-.654-3.489-.596-6.995-.971-10.511-.557-2.361.279-4.688.861-7.021 1.357-4.869 1.033-9.756 1.486-14.695.557-.356-.066-.709-.154-1.164-.253z"/><path fill="#BDFED2" d="M540.306 490.455c-.059-.105-.141-.205-.171-.318-.495-1.844-1.731-2.732-3.647-2.951.064-.348.17-.566.294-.775.824-1.391 1.66-2.773 2.477-4.168.256-.438.758-.852.473-1.416-.315-.623-.985-.418-1.528-.479-.239-.025-.48-.033-.63-.098.479-.252.889-.426 1.256-.666 1.917-1.258 3.809-2.557 5.742-3.787.66-.422 1.264-1.023 2.201-.938.776 1.389 1.107 2.801.995 4.283-.37 4.916-1.407 9.682-3.385 14.217-.833 1.914-1.949 3.637-3.5 5.057-.84.77-1.782 1.26-2.961 1.146.119-.248.202-.521.36-.736 1.57-2.15 2.338-4.549 2.362-7.34.354-.303.616-.477.94-.566.141.418.221.752.302 1.09-.22.32-.477.629-.65.98-.063.123.033.385.142.512.063.076.329.076.438.006.327-.213.622-.477.905-.619-.063.486.074.734.496.654.113-.02.197-.203.294-.311-.183-.152-.357-.313-.552-.447-.049-.035-.152.01-.213-.064.119-.207.213-.34.322-.459.354-.387.747-.746 1.057-1.166.095-.131.017-.457-.087-.629-.045-.076-.4-.063-.534.027-.326.225-.604.516-.842.725-.43-.137-.79-.254-1.107-.438 1.57-1.184 2.195-2.779 2.277-4.572.078-1.729-.919-2.852-2.631-3.24-.142-.029-.266-.133-.38-.193.096-.631.525-.594.933-.604.484-.012.978.016 1.45-.063.163-.027.346-.297.396-.49.023-.09-.231-.354-.381-.371a10.142 10.142 0 0 0-1.448-.043c-1.357.037-1.778.393-2.084 1.715-.179.775.006.996.843 1.004 1.561.02 2.481.883 2.337 2.4-.172 1.758-.873 3.271-2.561 4.131z"/><path fill="#15CD90" d="M537.846 499.599c1.253.074 2.195-.416 3.035-1.184 1.551-1.42 2.667-3.145 3.5-5.057 1.978-4.535 3.016-9.301 3.385-14.217.112-1.482-.219-2.896-.994-4.35-.075-.178-.089-.217-.048-.301.072-.088.089-.131.186-.191.442-.248.808-.477 1.172-.707.25.398.58.768.736 1.197 1.005 2.783.973 5.643.404 8.492-.735 3.691-1.749 7.316-3.419 10.707-.799 1.621-1.695 3.23-2.783 4.668-1.584 2.092-3.739 3.012-6.491 2.266.355-.464.798-.872 1.317-1.323z"/><path fill="#E5FFED" d="M537.743 508.326c.125-.324.292-.73.596-.92a430.863 430.863 0 0 1 6.799-4.146c1.069-.643 2.17-1.23 3.238-1.875.671-.402 1.396-.381 2.114-.313.824.078 1.212.748.824 1.473-.216.4-.582.771-.969 1.021-2.596 1.689-5.215 3.344-7.822 5.012-.168.105-.312.25-.5.455-1.366-.444-2.758-.631-4.28-.707zM543.007 511.613c.786-.441 1.55-.777 2.291-1.16 1-.516 1.975-1.08 2.979-1.586.312-.156.682-.227 1.033-.266.426-.049.823.057.922.563.089.463.029.875-.455 1.131-.677.354-1.342.727-2.003 1.107-2.051 1.186-4.096 2.381-6.146 3.564-.136.078-.298.113-.537.17.048-.229.15-.488.326-.684a7.141 7.141 0 0 0 1.59-2.839z"/><path fill="#038D60" d="M540.304 490.542c1.69-.947 2.393-2.461 2.562-4.223.146-1.518-.776-2.381-2.337-2.398-.837-.01-1.021-.229-.843-1.004.306-1.324.727-1.678 2.084-1.715a9.85 9.85 0 0 1 1.448.041c.148.018.404.281.381.373-.051.191-.232.463-.396.49-.475.076-.966.051-1.45.063-.406.01-.837-.029-.933.604.114.061.238.162.38.193 1.712.387 2.709 1.51 2.631 3.24-.082 1.791-.707 3.389-2.273 4.568l-.033.059c-.264.174-.524.348-.866.545-.174-.234-.265-.492-.355-.836z"/><path fill="#08FEBF" d="M525.347 487.224c-.301 1.775-.682 3.563-1.063 5.445-.803.453-1.603.813-2.605 1.262.077-.494.086-.754.159-.994.403-1.311.805-2.621 1.248-3.92a1.66 1.66 0 0 1 .56-.742c.512-.383 1.077-.697 1.701-1.051z"/><path fill="#038D60" d="M537.479 480.296c.24.016.481.023.722.051.543.061 1.213-.146 1.528.479.285.564-.217.979-.473 1.416-.815 1.395-1.651 2.777-2.477 4.168-.124.209-.229.428-.372.725-.371.162-.713.242-1.146.32.809-1.613 1.703-3.229 2.605-4.838.214-.381.453-.746.727-1.191l-1.688-.367c.122-.223.225-.408.386-.67.105-.071.147-.077.188-.093z"/><path fill="#8FE3C7" d="M518.458 505.896a5315.03 5315.03 0 0 1-6.313 2.271l-.123-.205c.158-.193.282-.439.482-.572 1.507-.992 3.015-1.988 4.557-2.926.433-.262.981-.328 1.565-.389.003.671-.083 1.247-.168 1.821z"/><path fill="#15CD90" d="M530.664 489.382c-.076-.551-.111-1.117-.043-1.67.103-.832.543-1.23 1.219-1.211.694.02 1.008.377 1.104 1.262.009.078.003.16.003.338-.733.49-1.465.881-2.283 1.281z"/><path fill="#08FEBF" d="M518.542 505.886c.001-.564.087-1.141.181-1.814 1.047-.471 2.071-.441 3.179-.064-.952 1.029-2.167 1.355-3.36 1.878z"/><path fill="#E5FFED" d="M540.962 515.125c.005.045-.051.086-.133.094-.027-.034.073-.1.133-.094z"/><path fill="#FBFEFD" d="M166.649 433.898c-2.476 2.037-5.256 3.342-8.155 4.406-4.698 1.725-9.515 2.854-14.551 3.029-5.206.182-10.04-.932-14.485-3.676-.86-.531-1.758-1.002-2.631-1.514-.591-.348-1.022-.793-.899-1.564.129-.813.438-1.516 1.283-1.75.615-.172 1.273-.287 1.908-.271 2.184.061 4.369.15 6.549.301 3.604.25 7.198.117 10.792-.18 2.137-.176 4.279-.303 6.413-.512 3.155-.311 6.194-1.178 9.237-2.018 1.208-.332 2.421-.686 3.655-.869.686-.102 1.454.02 2.125.229.891.281 1.207 1.037.728 1.838-.533.893-1.262 1.666-1.969 2.551z"/><path fill="#FDFEFE" d="M161.248 412.71a265.405 265.405 0 0 0-1.705 3.211l-2.375-.152c-.835-2.438-1.041-4.84-.788-7.273.263-2.529 1.125-4.881 2.33-7.111.701-1.299 1.633-2.395 2.747-3.367 3.178-2.779 7.292-2.623 10.322.271 3.393 3.24 5.444 7.219 5.893 11.936.103 1.08.021 2.18.021 3.268 0 .406-.153.689-.582.807-.697.188-1.386.404-2.108.617-.192-.328-.351-.555-.466-.803-2.25-4.828-8.945-6.164-12.923-1.84-.109.116-.208.243-.366.436zM122.475 402.099c2.459-1.914 5.066-2.117 7.855-1.107 4.15 1.502 6.487 4.637 7.875 8.646.753 2.176.934 4.414.828 6.699-.031.664-.266 1.043-.9 1.242-.915.289-1.812.631-2.786.975-1.649-4.135-4.493-6.436-8.934-5.785-4.026.592-6.1 3.318-6.737 7.334-.324 0-.638.025-.946-.004-1.316-.131-1.434-.27-1.736-1.559-.52-2.221-.298-4.404.156-6.609.781-3.795 2.456-7.082 5.325-9.832z"/><path fill="#FBFEFD" d="M170.285 468.878c-10.224-.426-20.444-.098-30.66-.098-2.684 0-5.365.484-8.053.633-2.667.145-5.249.756-7.948 1.236-.482-2.217-1.164-4.367-2.135-6.426-.313-.662-.786-1.346-.221-2.021.559-.67 1.356-.373 2.049-.191 4.07 1.074 8.185 1.932 12.354 2.496 2.002.271 4.033.328 6.035.6 3.269.441 6.552.441 9.813.178 4.189-.34 8.345-.932 12.304-2.539 2.476-1.006 4.988-1.895 7.216-3.418.519-.355 1.118-.781 1.763-.209.612.545.513 1.191.251 1.891-.824 2.195-1.619 4.402-2.416 6.609-.137.377-.228.773-.352 1.259z"/><path fill="#038D60" d="M135.634 498.14c-.036-.346-.048-.697-.13-1.033-.515-2.096-.862-4.195-.39-6.354.37-1.691 1.134-3.188 2.164-4.566 1.723-2.305 5.252-3.449 7.811-2.414 1.066.432 1.171.508.906 1.576-.358 1.451-.739 2.896-1.142 4.43a4.087 4.087 0 0 1-1.164-.24c-.492-.174-.959-.441-1.462-.563-1.393-.336-2.651.674-2.743 2.107-.098 1.529.171 2.945.942 4.295 1.595 2.795 3.614 5.221 6.07 7.379-.003.096-.096.123-.16.102-.136.025-.209.07-.392.131-.994.002-1.878-.012-2.762-.021-2.132-1.34-4.264-2.678-6.394-4.021-.237-.148-.458-.324-.795-.596a1.658 1.658 0 0 0-.373-.225c.001-.001.006.015.014.013zM146.831 491.917c1.756-1.213 3.548-2.354 5.308-3.475 1.41 1.373 1.983 6.168-.127 9.934-.295-.125-.584-.277-.762-.512a578.31 578.31 0 0 1-4.419-5.947z"/><path fill="#B2F4D1" d="M146.4 502.88s.093-.027.136-.049c.298.088.581.152.801.309a638.534 638.534 0 0 1 4.934 3.521c.347.25.822.457.483 1.172-.375-.021-.835.053-1.221-.084-3.101-1.107-5.936-2.727-8.638-4.59a.246.246 0 0 1 .054-.1c.028-.025.073-.031.172-.07.945-.012 1.829 0 2.886.008.246-.04.319-.08.393-.117z"/><path fill="#8FE3C7" d="M173.577 500.06a27.64 27.64 0 0 1 1.624.111c-1.267 1.277-2.605 2.553-4.021 3.738-.705.59-1.55 1.012-2.417 1.518.203-1.68.395-3.391 1.24-5.057.955-.066 1.761-.033 2.564-.064.339-.012.673-.16 1.01-.246zM125.711 510.226c-.016-.068.043-.113.178-.137.016.069-.043.116-.178.137z"/><path fill="#B2F4D1" d="M135.655 498.193c.054-.027.143.012.269.123-.053.031-.144-.012-.269-.123z"/><path fill="#37CE9B" d="M173.568 499.951c-.328.195-.662.344-1.001.355-.803.029-1.609-.004-2.523-.021.998-3.666 2.103-7.32 3.21-10.977.373-1.229.751-2.457 1.191-3.746.065-.061.059-.064.055.029.018.277.04.463.062.648-.623 4.514-.911 9.05-.994 13.712z"/><path fill="#038D60" d="M117.493 478.57c.411-.16.756-.342 1.094-.326.699.027 1.223.736 1.154 1.443-.063.654-.651 1.18-1.316 1.176-.68-.004-1.25-.506-1.257-1.201-.005-.34.165-.684.325-1.092z"/><path fill="#37CE9B" d="M174.666 484.888c.042.102.038.254-.017.492-.05.088-.145.119-.145.119l.009.008c.037-.187.071-.377.153-.619z"/><path fill="#8FE3C7" d="M118.768 500.833c.059.078.073.199.062.41-.053-.062-.08-.212-.062-.41z"/><path fill="#E5FFED" d="M537.57 480.25c-.133.063-.176.068-.25.057-.582-.238-1.118-.566-1.741-.303-.381.793.548.781.725 1.303-.643.496-1.306 1.01-1.966 1.521-.533.416-1.089.307-1.585-.014-1.363-.879-1.932-2.271-2.121-3.779-.055-.441.363-1.078.748-1.418a59.42 59.42 0 0 1 7.353-5.508c1.732-1.109 3.401-2.318 5.12-3.451.64-.422 1.32-.783 2.01-1.121.824-.404 1.663-.105 1.939.773.354 1.123.745 2.201 1.373 3.213.401.646.082 1.146-1.04 1.738-1.335-1.428-2.75-2.17-4.636-1.674-1.614.422-1.653.463-1.047 2.227 1.418-.291 2.847-.346 4.14.584a.437.437 0 0 0 .077.139c.014.039.026.08.04.184-.877.053-1.479.654-2.141 1.076-1.935 1.23-3.825 2.529-5.742 3.787-.367.24-.776.414-1.256.666zM534.374 473.335c-.362-.043-.673-.035-.896-.172-.526-.326-.568-.723-.164-1.205.232-.279.486-.553.775-.768a638.068 638.068 0 0 1 5.537-4.105c.258-.189.542-.363.84-.475.487-.182.884.025 1.145.441.277.445.164.869-.23 1.188-.784.631-1.57 1.264-2.386 1.855a164.3 164.3 0 0 1-4.621 3.241z"/><path fill="#B2F4D1" d="M546.579 474.369c-1.28-.898-2.709-.846-4.127-.555-.606-1.764-.567-1.805 1.047-2.227 1.886-.496 3.301.246 4.549 1.68.038.115.036.156.033.264a6.781 6.781 0 0 1-1.235.779 8.248 8.248 0 0 0-.267.059z"/><path fill="#038D60" d="M541.514 490.845c.356.119.717.234 1.146.373.236-.211.516-.502.842-.725.134-.092.489-.105.534-.029.104.174.182.5.087.629-.31.422-.701.779-1.057 1.168a2.28 2.28 0 0 0-.318.453c-.014.078-.004.07-.004.07-.31.244-.604.508-.933.721-.106.07-.373.07-.437-.006-.107-.127-.203-.389-.143-.512.176-.352.433-.66.651-.98-.081-.338-.161-.672-.302-1.09-.059-.082-.061-.074-.066-.072zM542.73 492.796c.073-.004.178-.049.227-.014.193.135.369.295.552.445-.097.109-.181.291-.294.313-.422.08-.559-.168-.496-.654.025-.101.015-.094.011-.09z"/><path fill="#BDFED2" d="M546.592 474.398c.028-.039.07-.049.175-.068.046.033.029.076-.043.164-.084.009-.106-.026-.132-.096z"/><path fill="#34CC9A" d="M146.336 502.859c-.01.059-.083.098-.22.127.011-.057.084-.102.22-.127z"/><path fill="#B2F4D1" d="M174.5 485.593c.003-.094.099-.125.147-.135.041.213.033.436-.03.721-.077-.123-.099-.308-.117-.586z"/></svg>